<svg xmlns="http://www.w3.org/2000/svg" viewBox="0 0 72 20">
  <g fill="none">
    <g fill="#E42527" opacity=".9">
      <path d="M19.103 19.238a.704.704 0 1 1 0-1.41.703.703 0 0 0 .702-.702V3.523a.704.704 0 1 1 1.41 0v13.603a2.113 2.113 0 0 1-2.112 2.112zm-15.576-2.83a.704.704 0 0 1-.704-.705V2.125c0-1.165.946-2.11 2.11-2.11a.704.704 0 1 1 0 1.408.703.703 0 0 0-.701.702v13.578c0 .39-.315.705-.705.705z"/>
      <path d="M23.295 1.425H.705a.704.704 0 1 1 0-1.409h22.59a.704.704 0 1 1 0 1.41zm0 17.817H.705a.704.704 0 1 1 0-1.409h22.59a.704.704 0 1 1 0 1.41zM9.64 14.414a.706.706 0 0 1-.705-.705V5.588a.706.706 0 0 1 1.057-.61l7.038 4.062a.706.706 0 0 1 0 1.22L9.992 14.32a.695.695 0 0 1-.352.094zm.705-7.606v5.683l4.924-2.842-4.924-2.841z"/>
    </g>
    <path fill="#000" d="M36.336 15.024c-1.835 0-3.28-.565-4.336-1.696l1.04-1.44c.917.981 2.043 1.472 3.376 1.472.715 0 1.25-.144 1.608-.432.357-.288.536-.63.536-1.024 0-.405-.213-.728-.64-.968-.427-.24-.944-.43-1.552-.568a23.982 23.982 0 0 1-1.832-.496 3.533 3.533 0 0 1-1.56-.976c-.427-.459-.64-1.05-.64-1.776 0-.896.36-1.64 1.08-2.232.72-.592 1.656-.888 2.808-.888 1.643 0 2.976.496 4 1.488L39.152 6.88c-.81-.81-1.84-1.216-3.088-1.216-.555 0-.995.12-1.32.36-.325.24-.488.563-.488.968 0 .267.115.49.344.672.23.181.525.328.888.44.363.112.765.221 1.208.328.443.107.885.237 1.328.392.443.155.845.344 1.208.568.363.224.659.533.888.928.23.395.344.864.344 1.408 0 .96-.347 1.75-1.04 2.368-.693.619-1.723.928-3.088.928zm12.72-.192h-1.68V9.968c0-.565-.136-.968-.408-1.208-.272-.24-.659-.36-1.16-.36a2.21 2.21 0 0 0-1.12.304c-.352.203-.64.448-.864.736v5.392h-1.68V4.16h1.68v4c.288-.341.675-.635 1.16-.88a3.444 3.444 0 0 1 1.576-.368c1.664 0 2.496.816 2.496 2.448v5.472zm5.664.192c-1.195 0-2.155-.392-2.88-1.176-.725-.784-1.088-1.747-1.088-2.888 0-1.141.363-2.101 1.088-2.88.725-.779 1.685-1.168 2.88-1.168 1.205 0 2.17.39 2.896 1.168.725.779 1.088 1.739 1.088 2.88 0 1.152-.363 2.117-1.088 2.896-.725.779-1.69 1.168-2.896 1.168zm0-1.488c.693 0 1.24-.248 1.64-.744.4-.496.6-1.107.6-1.832 0-.715-.2-1.32-.6-1.816-.4-.496-.947-.744-1.64-.744-.683 0-1.224.248-1.624.744-.4.496-.6 1.101-.6 1.816 0 .725.2 1.336.6 1.832.4.496.941.744 1.624.744zm14.176 1.296h-1.76l-1.792-5.664-1.792 5.664h-1.76l-2.4-7.728h1.744l1.632 5.616 1.84-5.616h1.472l1.84 5.616 1.632-5.616h1.744l-2.4 7.728z"/>
  </g>
</svg>
